<svg version="1.2" xmlns="http://www.w3.org/2000/svg" viewBox="0 0 521 204" width="501" height="196" fill="#C89B3C">
	<title>HT_MetalLibrary-ai</title>
	<style>
		.s0 { fill: none;stroke: #C89B3C;stroke-miterlimit:10;stroke-width: 3 } 
		.s1 { fill: none;stroke: #C89B3C;stroke-miterlimit:10 } 
	</style>
	<g id="je veux">
		<path id="&lt;Path&gt;" class="s0" d=""/>
		<path id="&lt;Path&gt;" class="s1" d="m261.8 102.6v89.6"/>
		<path id="&lt;Path&gt;" class="s1" d="m269.9 66.8v89.5"/>
		<path id="&lt;Path&gt;" class="s1" d="m427.1 49.3c0-9.8 8.5-17.3 20.2-17.3h56.2"/>
		<path id="&lt;Path&gt;" class="s1" d="m426.9 55.4v3.7h-132.1-1.8l-31.2 30.9-31.1-30.9h-21.9-112.1v-3.7"/>
		<path id="&lt;Path&gt;" class="s1" d="m275.8 167.7v-68.5l39-40"/>
		<path id="&lt;Path&gt;" class="s1" d=""/>
		<path id="&lt;Path&gt;" class="s0" d="m138.7 52.7l12.8 12.9h102.4l7.9 7.3 7.9-7.3h102.4l12.8-12.9"/>
		<path id="&lt;Path&gt;" class="s0" d=""/>
		<path id="&lt;Path&gt;" class="s1" d="m253.7 66.8v89.5"/>
		<path id="&lt;Path&gt;" class="s1" d="m96.5 49.3c0-9.8-8.5-17.3-20.2-17.3h-56.2"/>
		<path id="&lt;Path&gt;" class="s1" d="m247.9 167.7v-68.5l-39.1-40"/>
		<path id="&lt;Path&gt;" class="s0" d="m242.4 84.6v77.6l19.4 19.6 19.4-19.6v-77.6"/>
		<path id="&lt;Path&gt;" class="s1" d=""/>
		<path id="&lt;Path&gt;" class="s0" d="m447.3 35.4v3.5c-7.4 0-13.5 6-13.5 13.5h-94.5-10.7-15.4l-51.4 51.6-51.4-51.6h-15.4-10.7-94.5c0-7.5-6.1-13.5-13.5-13.5v-3.5"/>
	</g>
</svg>